<?xml version="1.0" encoding="UTF-8"?><svg xmlns="http://www.w3.org/2000/svg" xmlns:xlink="http://www.w3.org/1999/xlink" fill-opacity="1" color-rendering="auto" color-interpolation="auto" text-rendering="auto" stroke="black" stroke-linecap="square" width="1194" stroke-miterlimit="10" shape-rendering="auto" stroke-opacity="1" fill="black" stroke-dasharray="none" font-weight="normal" stroke-width="1" height="841" font-family="'Dialog'" font-style="normal" stroke-linejoin="miter" font-size="12" stroke-dashoffset="0" image-rendering="auto">
  <!--Generated by ySVG 2.5-->
  <defs id="genericDefs"/>
  <g>
    <g fill="white" text-rendering="geometricPrecision" shape-rendering="geometricPrecision" transform="translate(-55,-67)" stroke="white">
      <rect x="55" width="1194" height="841" y="67" clip-path="url(#clipPath2)" stroke="none"/>
    </g>
    <g text-rendering="geometricPrecision" stroke-miterlimit="1.45" shape-rendering="geometricPrecision" font-family="sans-serif" transform="matrix(1,0,0,1,-55,-67)" stroke-linecap="butt">
      <text x="539.9551" xml:space="preserve" y="884.1699" clip-path="url(#clipPath2)" stroke="none">Trove</text>
    </g>
    <g stroke-linecap="round" transform="matrix(1,0,0,1,-55,-67)" text-rendering="geometricPrecision" shape-rendering="geometricPrecision" stroke-dasharray="8,6,0,6" stroke-width="2" stroke-miterlimit="1.45">
      <rect fill="none" x="343" width="428" height="325.86" y="567.14" clip-path="url(#clipPath2)"/>
    </g>
    <g font-size="14" stroke-linecap="butt" transform="matrix(1,0,0,1,-55,-67)" text-rendering="geometricPrecision" font-family="sans-serif" shape-rendering="geometricPrecision" font-weight="bold" stroke-miterlimit="1.45">
      <text x="461.2546" xml:space="preserve" y="101.3951" clip-path="url(#clipPath2)" stroke="none">Bamboo</text>
      <text x="417.0125" xml:space="preserve" y="117.692" clip-path="url(#clipPath2)" stroke="none">Collection Manager</text>
      <rect x="280.6731" y="82.4" clip-path="url(#clipPath2)" fill="none" width="425.1269" rx="4" ry="4" height="291"/>
    </g>
    <g fill="url(#linearGradient1)" text-rendering="geometricPrecision" shape-rendering="geometricPrecision" transform="matrix(1,0,0,1,-55,-67)" stroke="url(#linearGradient1)">
      <path d="M113.1 453.7 L249.9 453.7 L249.9 532.1 L113.1 532.1 Z" stroke="none" clip-path="url(#clipPath2)"/>
    </g>
    <g text-rendering="geometricPrecision" stroke-miterlimit="1.45" shape-rendering="geometricPrecision" transform="matrix(1,0,0,1,-55,-67)" stroke-linecap="butt">
      <path fill="none" d="M113.1 453.7 L249.9 453.7 L249.9 532.1 L113.1 532.1 Z" clip-path="url(#clipPath2)"/>
      <text x="154.0811" xml:space="preserve" y="490.0699" clip-path="url(#clipPath2)" font-family="sans-serif" stroke="none">Wayback</text>
      <text x="145.7461" xml:space="preserve" y="504.0387" clip-path="url(#clipPath2)" font-family="sans-serif" stroke="none">page replay</text>
    </g>
    <g fill="url(#linearGradient2)" text-rendering="geometricPrecision" shape-rendering="geometricPrecision" transform="matrix(1,0,0,1,-55,-67)" stroke="url(#linearGradient2)">
      <path d="M310.6731 314 L540.6731 314 L540.6731 354 L310.6731 354 Z" stroke="none" clip-path="url(#clipPath2)"/>
    </g>
    <g text-rendering="geometricPrecision" stroke-miterlimit="1.45" shape-rendering="geometricPrecision" transform="matrix(1,0,0,1,-55,-67)" stroke-linecap="butt">
      <path fill="none" d="M310.6731 314 L540.6731 314 L540.6731 354 L310.6731 354 Z" clip-path="url(#clipPath2)"/>
      <text x="350.2132" xml:space="preserve" y="338.1543" clip-path="url(#clipPath2)" font-family="sans-serif" stroke="none">Web Archive Records API</text>
    </g>
    <g fill="url(#linearGradient3)" text-rendering="geometricPrecision" shape-rendering="geometricPrecision" transform="matrix(1,0,0,1,-55,-67)" stroke="url(#linearGradient3)">
      <path d="M397.6 698.83 C400.6 674.29 494.6 674.29 497.6 698.83 L497.6 772.45 C494.6 796.99 400.6 796.99 397.6 772.45 Z" stroke="none" clip-path="url(#clipPath2)"/>
    </g>
    <g text-rendering="geometricPrecision" stroke-miterlimit="1.45" shape-rendering="geometricPrecision" transform="matrix(1,0,0,1,-55,-67)" stroke-linecap="butt">
      <path fill="none" d="M397.6 698.83 C400.6 674.29 494.6 674.29 497.6 698.83 L497.6 772.45 C494.6 796.99 400.6 796.99 397.6 772.45 Z" clip-path="url(#clipPath2)"/>
      <path fill="none" d="M497.6 698.83 C494.6 723.37 400.6 723.37 397.6 698.83" clip-path="url(#clipPath2)"/>
      <text x="435.9867" xml:space="preserve" y="739.7943" clip-path="url(#clipPath2)" font-family="sans-serif" stroke="none">Solr</text>
    </g>
    <g fill="url(#linearGradient4)" text-rendering="geometricPrecision" shape-rendering="geometricPrecision" transform="matrix(1,0,0,1,-55,-67)" stroke="url(#linearGradient4)">
      <path d="M1030.6731 280.6 L1233.0731 280.6 L1233.0731 359 L1030.6731 359 Z" stroke="none" clip-path="url(#clipPath2)"/>
    </g>
    <g text-rendering="geometricPrecision" stroke-miterlimit="1.45" shape-rendering="geometricPrecision" transform="matrix(1,0,0,1,-55,-67)" stroke-linecap="butt">
      <path fill="none" d="M1030.6731 280.6 L1233.0731 280.6 L1233.0731 359 L1030.6731 359 Z" clip-path="url(#clipPath2)"/>
      <text x="1095.9142" xml:space="preserve" y="309.9855" clip-path="url(#clipPath2)" font-family="sans-serif" stroke="none">Butterflynet</text>
      <text x="1072.4913" xml:space="preserve" y="323.9543" clip-path="url(#clipPath2)" font-family="sans-serif" stroke="none">instant PDF capture</text>
      <text x="1086.4777" xml:space="preserve" y="337.923" clip-path="url(#clipPath2)" font-family="sans-serif" stroke="none">for cataloguers</text>
    </g>
    <g fill="url(#linearGradient5)" text-rendering="geometricPrecision" shape-rendering="geometricPrecision" transform="matrix(1,0,0,1,-55,-67)" stroke="url(#linearGradient5)">
      <path d="M1035.0731 163.4 L1233.0731 163.4 L1233.0731 250.6 L1035.0731 250.6 Z" stroke="none" clip-path="url(#clipPath2)"/>
    </g>
    <g text-rendering="geometricPrecision" stroke-miterlimit="1.45" shape-rendering="geometricPrecision" transform="matrix(1,0,0,1,-55,-67)" stroke-linecap="butt">
      <path fill="none" d="M1035.0731 163.4 L1233.0731 163.4 L1233.0731 250.6 L1035.0731 250.6 Z" clip-path="url(#clipPath2)"/>
      <text x="1111.6991" xml:space="preserve" y="204.1699" clip-path="url(#clipPath2)" font-family="sans-serif" stroke="none">Heritrix</text>
      <text x="1089.4393" xml:space="preserve" y="218.1387" clip-path="url(#clipPath2)" font-family="sans-serif" stroke="none">broad crawling</text>
    </g>
    <g fill="silver" text-rendering="geometricPrecision" shape-rendering="geometricPrecision" transform="matrix(1,0,0,1,-55,-67)" stroke="silver">
      <path d="M1030.6731 470.2 L1233.0731 470.2 L1233.0731 548.6 L1030.6731 548.6 Z" stroke="none" clip-path="url(#clipPath2)"/>
    </g>
    <g text-rendering="geometricPrecision" stroke-miterlimit="1.45" shape-rendering="geometricPrecision" transform="matrix(1,0,0,1,-55,-67)" stroke-linecap="butt">
      <path fill="none" d="M1030.6731 470.2 L1233.0731 470.2 L1233.0731 548.6 L1030.6731 548.6 Z" clip-path="url(#clipPath2)"/>
      <text x="1081.7843" xml:space="preserve" y="499.5855" clip-path="url(#clipPath2)" font-family="sans-serif" stroke="none">External sources</text>
      <text x="1037.8888" xml:space="preserve" y="513.5543" clip-path="url(#clipPath2)" font-family="sans-serif" stroke="none">e.g. Internet Archive .au crawls</text>
      <text x="1041.4073" xml:space="preserve" y="527.5231" clip-path="url(#clipPath2)" font-family="sans-serif" stroke="none">WARCs via mailed hard drives</text>
    </g>
    <g fill="url(#linearGradient6)" text-rendering="geometricPrecision" shape-rendering="geometricPrecision" transform="matrix(1,0,0,1,-55,-67)" stroke="url(#linearGradient6)">
      <path d="M1030.6731 381.24 L1233.0731 381.24 L1233.0731 445.24 L1030.6731 445.24 Z" stroke="none" clip-path="url(#clipPath2)"/>
    </g>
    <g text-rendering="geometricPrecision" stroke-miterlimit="1.45" shape-rendering="geometricPrecision" transform="matrix(1,0,0,1,-55,-67)" stroke-linecap="butt">
      <path fill="none" d="M1030.6731 381.24 L1233.0731 381.24 L1233.0731 445.24 L1030.6731 445.24 Z" clip-path="url(#clipPath2)"/>
      <text x="1092.879" xml:space="preserve" y="403.4255" clip-path="url(#clipPath2)" font-family="sans-serif" stroke="none">Webrecorder</text>
      <text x="1069.1954" xml:space="preserve" y="417.3943" clip-path="url(#clipPath2)" font-family="sans-serif" stroke="none">instant page capture</text>
      <text x="1050.6447" xml:space="preserve" y="431.363" clip-path="url(#clipPath2)" font-family="sans-serif" stroke="none">(records browser requests)</text>
    </g>
    <g fill="url(#linearGradient7)" text-rendering="geometricPrecision" shape-rendering="geometricPrecision" transform="matrix(1,0,0,1,-55,-67)" stroke="url(#linearGradient7)">
      <path d="M440.6731 214.6 L540.6731 214.6 L540.6731 278.6 L440.6731 278.6 Z" stroke="none" clip-path="url(#clipPath2)"/>
    </g>
    <g text-rendering="geometricPrecision" stroke-miterlimit="1.45" shape-rendering="geometricPrecision" transform="matrix(1,0,0,1,-55,-67)" stroke-linecap="butt">
      <path fill="none" d="M440.6731 214.6 L540.6731 214.6 L540.6731 278.6 L440.6731 278.6 Z" clip-path="url(#clipPath2)"/>
      <text x="455.6663" xml:space="preserve" y="250.7543" clip-path="url(#clipPath2)" font-family="sans-serif" stroke="none">Seedlists UI</text>
    </g>
    <g fill="url(#linearGradient8)" text-rendering="geometricPrecision" shape-rendering="geometricPrecision" transform="matrix(1,0,0,1,-55,-67)" stroke="url(#linearGradient8)">
      <path d="M310.6731 214.6 L410.6731 214.6 L410.6731 278.6 L310.6731 278.6 Z" stroke="none" clip-path="url(#clipPath2)"/>
    </g>
    <g text-rendering="geometricPrecision" stroke-miterlimit="1.45" shape-rendering="geometricPrecision" transform="matrix(1,0,0,1,-55,-67)" stroke-linecap="butt">
      <path fill="none" d="M310.6731 214.6 L410.6731 214.6 L410.6731 278.6 L310.6731 278.6 Z" clip-path="url(#clipPath2)"/>
      <text x="319.8011" xml:space="preserve" y="250.7543" clip-path="url(#clipPath2)" font-family="sans-serif" stroke="none">Collections UI</text>
    </g>
    <g text-rendering="geometricPrecision" shape-rendering="geometricPrecision" transform="matrix(2.2144,0,0,1.6721,776.8219,71.7169)">
      <g clip-path="url(#clipPath3)">
        <svg xml:space="preserve" opacity="1" writing-mode="lr-tb" stop-color="rgb(0, 0, 0)" shape-rendering="auto" glyph-orientation-horizontal="0deg" color-profile="auto" lighting-color="rgb(255, 255, 255)" color="rgb(0, 0, 0)" font-weight="400" alignment-baseline="auto" font-style="normal" version="1.1" color-interpolation-filters="linearrgb" text-anchor="start" stroke-linecap="butt" color-interpolation="srgb" font-variant="normal" word-spacing="normal" fill-opacity="1" text-rendering="auto" clip-path="none" text-decoration="none" letter-spacing="normal" viewBox="-0.875 -0.887 41 48" glyph-orientation-vertical="auto" display="inline" font-size-adjust="none" overflow="hidden" fill="rgb(0, 0, 0)" font-stretch="normal" stroke-dasharray="none" stroke-miterlimit="4" stop-opacity="1" color-rendering="auto" font-size="12" pointer-events="visiblepainted" mask="none" direction="ltr" baseline-shift="baseline" enable-background="new -0.875 -0.887 41 48" fill-rule="nonzero" image-rendering="auto" stroke-dashoffset="0" width="41px" marker-end="none" clip="auto" cursor="auto" stroke="none" filter="none" visibility="visible" kerning="auto" stroke-width="1" font-family="&quot;Arial&quot;,&quot;Helvetica&quot;,sans-serif" flood-opacity="1" clip-rule="nonzero" src="none" height="48px" unicode-bidi="normal" stroke-linejoin="miter" stroke-opacity="1" flood-color="rgb(0, 0, 0)" dominant-baseline="auto" marker-start="none" x="0px" marker-mid="none" y="0px">
<defs>
<linearGradient x1="113.1" gradientUnits="userSpaceOnUse" x2="249.9" y1="453.7" y2="532.1" id="linearGradient1" spreadMethod="reflect">
              <stop stop-opacity="1" stop-color="rgb(255,204,204)" offset="0%"/>
              <stop stop-opacity="1" stop-color="rgb(255,153,204)" offset="100%"/>
            </linearGradient>
            <linearGradient x1="310.6731" gradientUnits="userSpaceOnUse" x2="540.6731" y1="314" y2="354" id="linearGradient2" spreadMethod="reflect">
              <stop stop-opacity="1" stop-color="rgb(232,238,247)" offset="0%"/>
              <stop stop-opacity="1" stop-color="rgb(183,201,227)" offset="100%"/>
            </linearGradient>
            <linearGradient x1="397.6" gradientUnits="userSpaceOnUse" x2="497.6" y1="674.29" y2="796.99" id="linearGradient3" spreadMethod="reflect">
              <stop stop-opacity="1" stop-color="rgb(255,204,204)" offset="0%"/>
              <stop stop-opacity="1" stop-color="rgb(255,153,204)" offset="100%"/>
            </linearGradient>
            <linearGradient x1="1030.6731" gradientUnits="userSpaceOnUse" x2="1233.0731" y1="280.6" y2="359" id="linearGradient4" spreadMethod="reflect">
              <stop stop-opacity="1" stop-color="rgb(232,238,247)" offset="0%"/>
              <stop stop-opacity="1" stop-color="rgb(183,201,227)" offset="100%"/>
            </linearGradient>
            <linearGradient x1="1035.0731" gradientUnits="userSpaceOnUse" x2="1233.0731" y1="163.4" y2="250.6" id="linearGradient5" spreadMethod="reflect">
              <stop stop-opacity="1" stop-color="rgb(255,204,204)" offset="0%"/>
              <stop stop-opacity="1" stop-color="rgb(255,153,204)" offset="100%"/>
            </linearGradient>
            <linearGradient x1="1030.6731" gradientUnits="userSpaceOnUse" x2="1233.0731" y1="381.24" y2="445.24" id="linearGradient6" spreadMethod="reflect">
              <stop stop-opacity="1" stop-color="rgb(232,238,247)" offset="0%"/>
              <stop stop-opacity="1" stop-color="rgb(183,201,227)" offset="100%"/>
            </linearGradient>
            <linearGradient x1="440.6731" gradientUnits="userSpaceOnUse" x2="540.6731" y1="214.6" y2="278.6" id="linearGradient7" spreadMethod="reflect">
              <stop stop-opacity="1" stop-color="rgb(232,238,247)" offset="0%"/>
              <stop stop-opacity="1" stop-color="rgb(183,201,227)" offset="100%"/>
            </linearGradient>
            <linearGradient x1="310.6731" gradientUnits="userSpaceOnUse" x2="410.6731" y1="214.6" y2="278.6" id="linearGradient8" spreadMethod="reflect">
              <stop stop-opacity="1" stop-color="rgb(232,238,247)" offset="0%"/>
              <stop stop-opacity="1" stop-color="rgb(183,201,227)" offset="100%"/>
            </linearGradient>
            <linearGradient x1="1030.6731" gradientUnits="userSpaceOnUse" x2="1233.0731" y1="578.6" y2="642.6" id="linearGradient9" spreadMethod="reflect">
              <stop stop-opacity="1" stop-color="rgb(232,238,247)" offset="0%"/>
              <stop stop-opacity="1" stop-color="rgb(183,201,227)" offset="100%"/>
            </linearGradient>
            <linearGradient x1="91.8731" gradientUnits="userSpaceOnUse" x2="243.8731" y1="690.04" y2="781.24" id="linearGradient10" spreadMethod="reflect">
              <stop stop-opacity="1" stop-color="rgb(232,238,247)" offset="0%"/>
              <stop stop-opacity="1" stop-color="rgb(183,201,227)" offset="100%"/>
            </linearGradient>
            <linearGradient x1="581.1365" gradientUnits="userSpaceOnUse" x2="661.1365" y1="314" y2="354" id="linearGradient11" spreadMethod="reflect">
              <stop stop-opacity="1" stop-color="rgb(232,238,247)" offset="0%"/>
              <stop stop-opacity="1" stop-color="rgb(183,201,227)" offset="100%"/>
            </linearGradient>
            <linearGradient x1="578.2" gradientUnits="userSpaceOnUse" x2="747" y1="673.14" y2="798.14" id="linearGradient12" spreadMethod="reflect">
              <stop stop-opacity="1" stop-color="rgb(232,238,247)" offset="0%"/>
              <stop stop-opacity="1" stop-color="rgb(183,201,227)" offset="100%"/>
            </linearGradient>
            <linearGradient x1="394.1" gradientUnits="userSpaceOnUse" x2="501.1" y1="592.24" y2="637.84" id="linearGradient13" spreadMethod="reflect">
              <stop stop-opacity="1" stop-color="rgb(232,238,247)" offset="0%"/>
              <stop stop-opacity="1" stop-color="rgb(183,201,227)" offset="100%"/>
            </linearGradient>
            <linearGradient x1="561.6365" gradientUnits="userSpaceOnUse" x2="680.6365" y1="214.6" y2="272.4" id="linearGradient14" spreadMethod="reflect">
              <stop stop-opacity="1" stop-color="rgb(232,238,247)" offset="0%"/>
              <stop stop-opacity="1" stop-color="rgb(183,201,227)" offset="100%"/>
            </linearGradient>
            <clipPath clipPathUnits="userSpaceOnUse" id="clipPath1">
              <path d="M0 0 L1194 0 L1194 841 L0 841 L0 0 Z"/>
            </clipPath>
            <clipPath clipPathUnits="userSpaceOnUse" id="clipPath2">
              <path d="M55 67 L1249 67 L1249 908 L55 908 L55 67 Z"/>
            </clipPath>
            <clipPath clipPathUnits="userSpaceOnUse" id="clipPath3">
              <path d="M-350.8111 -42.8911 L188.3967 -42.8911 L188.3967 460.0784 L-350.8111 460.0784 L-350.8111 -42.8911 Z"/>
            </clipPath>
            <clipPath clipPathUnits="userSpaceOnUse" id="clipPath4">
              <path d="M-385.7338 -112.3655 L204.2067 -112.3655 L204.2067 299.0615 L-385.7338 299.0615 L-385.7338 -112.3655 Z"/>
            </clipPath>
          </defs>
<linearGradient gradientTransform="matrix(1 0 0 -1 -642.8008 -939.4756)" x1="642.8008" x2="682.0508" gradientUnits="userSpaceOnUse" y1="-979.1445" y2="-979.1445" id="svg1.SVGID_1_">
	<stop offset="0" style="stop-color:#3C89C9"/>
	<stop offset="0.1482" style="stop-color:#60A6DD"/>
	<stop offset="0.3113" style="stop-color:#81C1F0"/>
	<stop offset="0.4476" style="stop-color:#95D1FB"/>
	<stop offset="0.5394" style="stop-color:#9CD7FF"/>
	<stop offset="0.636" style="stop-color:#98D4FD"/>
	<stop offset="0.7293" style="stop-color:#8DCAF6"/>
	<stop offset="0.8214" style="stop-color:#79BBEB"/>
	<stop offset="0.912" style="stop-color:#5EA5DC"/>
	<stop offset="1" style="stop-color:#3C89C9"/>
</linearGradient>
<path fill="url(#svg1.SVGID_1_)" d="M19.625,36.763C8.787,36.763,0,34.888,0,32.575v10c0,2.313,8.787,4.188,19.625,4.188  c10.839,0,19.625-1.875,19.625-4.188v-10C39.25,34.888,30.464,36.763,19.625,36.763z"/>
<linearGradient gradientTransform="matrix(1 0 0 -1 -642.8008 -939.4756)" x1="642.8008" x2="682.0508" gradientUnits="userSpaceOnUse" y1="-973.1445" y2="-973.1445" id="svg1.SVGID_2_">
	<stop offset="0" style="stop-color:#9CD7FF"/>
	<stop offset="0.0039" style="stop-color:#9DD7FF"/>
	<stop offset="0.2273" style="stop-color:#BDE5FF"/>
	<stop offset="0.4138" style="stop-color:#D1EEFF"/>
	<stop offset="0.5394" style="stop-color:#D9F1FF"/>
	<stop offset="0.6155" style="stop-color:#D5EFFE"/>
	<stop offset="0.6891" style="stop-color:#C9E7FA"/>
	<stop offset="0.7617" style="stop-color:#B6DAF3"/>
	<stop offset="0.8337" style="stop-color:#9AC8EA"/>
	<stop offset="0.9052" style="stop-color:#77B0DD"/>
	<stop offset="0.9754" style="stop-color:#4D94CF"/>
	<stop offset="1" style="stop-color:#3C89C9"/>
</linearGradient>
<path fill="url(#svg1.SVGID_2_)" d="M19.625,36.763c10.839,0,19.625-1.875,19.625-4.188l-1.229-2c0,2.168-8.235,3.927-18.396,3.927  c-9.481,0-17.396-1.959-18.396-3.927l-1.229,2C0,34.888,8.787,36.763,19.625,36.763z"/>
<path fill="#3C89C9" d="M19.625,26.468c10.16,0,19.625,2.775,19.625,2.775c-0.375,2.721-5.367,5.438-19.554,5.438  c-12.125,0-18.467-2.484-19.541-4.918C-0.127,29.125,9.465,26.468,19.625,26.468z"/>
<linearGradient gradientTransform="matrix(1 0 0 -1 -642.8008 -939.4756)" x1="642.8008" x2="682.0508" gradientUnits="userSpaceOnUse" y1="-965.6948" y2="-965.6948" id="svg1.SVGID_3_">
	<stop offset="0" style="stop-color:#3C89C9"/>
	<stop offset="0.1482" style="stop-color:#60A6DD"/>
	<stop offset="0.3113" style="stop-color:#81C1F0"/>
	<stop offset="0.4476" style="stop-color:#95D1FB"/>
	<stop offset="0.5394" style="stop-color:#9CD7FF"/>
	<stop offset="0.636" style="stop-color:#98D4FD"/>
	<stop offset="0.7293" style="stop-color:#8DCAF6"/>
	<stop offset="0.8214" style="stop-color:#79BBEB"/>
	<stop offset="0.912" style="stop-color:#5EA5DC"/>
	<stop offset="1" style="stop-color:#3C89C9"/>
</linearGradient>
<path fill="url(#svg1.SVGID_3_)" d="M19.625,23.313C8.787,23.313,0,21.438,0,19.125v10c0,2.313,8.787,4.188,19.625,4.188  c10.839,0,19.625-1.875,19.625-4.188v-10C39.25,21.438,30.464,23.313,19.625,23.313z"/>
<linearGradient gradientTransform="matrix(1 0 0 -1 -642.8008 -939.4756)" x1="642.8008" x2="682.0508" gradientUnits="userSpaceOnUse" y1="-959.6948" y2="-959.6948" id="svg1.SVGID_4_">
	<stop offset="0" style="stop-color:#9CD7FF"/>
	<stop offset="0.0039" style="stop-color:#9DD7FF"/>
	<stop offset="0.2273" style="stop-color:#BDE5FF"/>
	<stop offset="0.4138" style="stop-color:#D1EEFF"/>
	<stop offset="0.5394" style="stop-color:#D9F1FF"/>
	<stop offset="0.6155" style="stop-color:#D5EFFE"/>
	<stop offset="0.6891" style="stop-color:#C9E7FA"/>
	<stop offset="0.7617" style="stop-color:#B6DAF3"/>
	<stop offset="0.8337" style="stop-color:#9AC8EA"/>
	<stop offset="0.9052" style="stop-color:#77B0DD"/>
	<stop offset="0.9754" style="stop-color:#4D94CF"/>
	<stop offset="1" style="stop-color:#3C89C9"/>
</linearGradient>
<path fill="url(#svg1.SVGID_4_)" d="M19.625,23.313c10.839,0,19.625-1.875,19.625-4.188l-1.229-2c0,2.168-8.235,3.926-18.396,3.926  c-9.481,0-17.396-1.959-18.396-3.926l-1.229,2C0,21.438,8.787,23.313,19.625,23.313z"/>
<path fill="#3C89C9" d="M19.476,13.019c10.161,0,19.625,2.775,19.625,2.775c-0.375,2.721-5.367,5.438-19.555,5.438  c-12.125,0-18.467-2.485-19.541-4.918C-0.277,15.674,9.316,13.019,19.476,13.019z"/>
<linearGradient gradientTransform="matrix(1 0 0 -1 -642.8008 -939.4756)" x1="642.8008" x2="682.0508" gradientUnits="userSpaceOnUse" y1="-952.4946" y2="-952.4946" id="svg1.SVGID_5_">
	<stop offset="0" style="stop-color:#3C89C9"/>
	<stop offset="0.1482" style="stop-color:#60A6DD"/>
	<stop offset="0.3113" style="stop-color:#81C1F0"/>
	<stop offset="0.4476" style="stop-color:#95D1FB"/>
	<stop offset="0.5394" style="stop-color:#9CD7FF"/>
	<stop offset="0.636" style="stop-color:#98D4FD"/>
	<stop offset="0.7293" style="stop-color:#8DCAF6"/>
	<stop offset="0.8214" style="stop-color:#79BBEB"/>
	<stop offset="0.912" style="stop-color:#5EA5DC"/>
	<stop offset="1" style="stop-color:#3C89C9"/>
</linearGradient>
<path fill="url(#svg1.SVGID_5_)" d="M19.625,10.113C8.787,10.113,0,8.238,0,5.925v10c0,2.313,8.787,4.188,19.625,4.188  c10.839,0,19.625-1.875,19.625-4.188v-10C39.25,8.238,30.464,10.113,19.625,10.113z"/>
<linearGradient gradientTransform="matrix(1 0 0 -1 -642.8008 -939.4756)" x1="642.8008" x2="682.0508" gradientUnits="userSpaceOnUse" y1="-946.4946" y2="-946.4946" id="svg1.SVGID_6_">
	<stop offset="0" style="stop-color:#9CD7FF"/>
	<stop offset="0.0039" style="stop-color:#9DD7FF"/>
	<stop offset="0.2273" style="stop-color:#BDE5FF"/>
	<stop offset="0.4138" style="stop-color:#D1EEFF"/>
	<stop offset="0.5394" style="stop-color:#D9F1FF"/>
	<stop offset="0.6155" style="stop-color:#D5EFFE"/>
	<stop offset="0.6891" style="stop-color:#C9E7FA"/>
	<stop offset="0.7617" style="stop-color:#B6DAF3"/>
	<stop offset="0.8337" style="stop-color:#9AC8EA"/>
	<stop offset="0.9052" style="stop-color:#77B0DD"/>
	<stop offset="0.9754" style="stop-color:#4D94CF"/>
	<stop offset="1" style="stop-color:#3C89C9"/>
</linearGradient>
<path fill="url(#svg1.SVGID_6_)" d="M19.625,10.113c10.839,0,19.625-1.875,19.625-4.188l-1.229-2c0,2.168-8.235,3.926-18.396,3.926  c-9.481,0-17.396-1.959-18.396-3.926L0,5.925C0,8.238,8.787,10.113,19.625,10.113z"/>
<linearGradient gradientTransform="matrix(1 0 0 -1 -642.8008 -939.4756)" x1="644.0293" x2="680.8223" gradientUnits="userSpaceOnUse" y1="-943.4014" y2="-943.4014" id="svg1.SVGID_7_">
	<stop offset="0" style="stop-color:#9CD7FF"/>
	<stop offset="1" style="stop-color:#3C89C9"/>
</linearGradient>
<ellipse rx="18.396" fill="url(#svg1.SVGID_7_)" ry="3.926" cx="19.625" cy="3.926"/>
<path fill="#FFFFFF" d="M31.04,45.982c0,0-4.354,0.664-7.29,0.781  c-3.125,0.125-8.952,0-8.952,0l-2.384-10.292l0.044-2.108l-1.251-1.154L9.789,23.024l-0.082-0.119L9.5,20.529l-1.65-1.254  L5.329,8.793c0,0,4.213,0.903,7.234,1.07s8.375,0.25,8.375,0.25l3,9.875l-0.25,1.313l1.063,2.168l2.312,9.645l-0.521,1.416  l1.46,1.834L31.04,45.982z" enable-background="new    " opacity="0.24"/>
</svg>
      </g>
    </g>
    <g text-rendering="geometricPrecision" stroke-miterlimit="1.45" shape-rendering="geometricPrecision" font-family="sans-serif" transform="matrix(1,0,0,1,-55,-67)" stroke-linecap="butt">
      <text x="850.6743" xml:space="preserve" y="235.7387" clip-path="url(#clipPath2)" stroke="none">DOSS v2</text>
      <text x="823.7094" xml:space="preserve" y="249.7074" clip-path="url(#clipPath2)" stroke="none">Preservation area</text>
    </g>
    <g text-rendering="geometricPrecision" shape-rendering="geometricPrecision" transform="matrix(2.0239,0,0,2.0441,780.6993,229.6869)">
      <g clip-path="url(#clipPath4)">
        <svg xml:space="preserve" opacity="1" writing-mode="lr-tb" stop-color="rgb(0, 0, 0)" shape-rendering="auto" glyph-orientation-horizontal="0deg" color-profile="auto" lighting-color="rgb(255, 255, 255)" color="rgb(0, 0, 0)" font-weight="400" alignment-baseline="auto" font-style="normal" version="1.1" color-interpolation-filters="linearrgb" text-anchor="start" stroke-linecap="butt" color-interpolation="srgb" font-variant="normal" word-spacing="normal" fill-opacity="1" text-rendering="auto" clip-path="none" text-decoration="none" letter-spacing="normal" viewBox="-0.875 -0.887 41 48" glyph-orientation-vertical="auto" display="inline" font-size-adjust="none" overflow="hidden" fill="rgb(0, 0, 0)" font-stretch="normal" stroke-dasharray="none" stroke-miterlimit="4" stop-opacity="1" color-rendering="auto" font-size="12" pointer-events="visiblepainted" mask="none" direction="ltr" baseline-shift="baseline" enable-background="new -0.875 -0.887 41 48" fill-rule="nonzero" image-rendering="auto" stroke-dashoffset="0" width="41px" marker-end="none" clip="auto" cursor="auto" stroke="none" filter="none" visibility="visible" kerning="auto" stroke-width="1" font-family="&quot;Arial&quot;,&quot;Helvetica&quot;,sans-serif" flood-opacity="1" clip-rule="nonzero" src="none" height="48px" unicode-bidi="normal" stroke-linejoin="miter" stroke-opacity="1" flood-color="rgb(0, 0, 0)" dominant-baseline="auto" marker-start="none" x="0px" marker-mid="none" y="0px">
<defs>
</defs>
<linearGradient gradientTransform="matrix(1 0 0 -1 -642.8008 -939.4756)" x1="642.8008" x2="682.0508" gradientUnits="userSpaceOnUse" y1="-979.1445" y2="-979.1445" id="svg2.SVGID_1_">
	<stop offset="0" style="stop-color:#3C89C9"/>
	<stop offset="0.1482" style="stop-color:#60A6DD"/>
	<stop offset="0.3113" style="stop-color:#81C1F0"/>
	<stop offset="0.4476" style="stop-color:#95D1FB"/>
	<stop offset="0.5394" style="stop-color:#9CD7FF"/>
	<stop offset="0.636" style="stop-color:#98D4FD"/>
	<stop offset="0.7293" style="stop-color:#8DCAF6"/>
	<stop offset="0.8214" style="stop-color:#79BBEB"/>
	<stop offset="0.912" style="stop-color:#5EA5DC"/>
	<stop offset="1" style="stop-color:#3C89C9"/>
</linearGradient>
<path fill="url(#svg2.SVGID_1_)" d="M19.625,36.763C8.787,36.763,0,34.888,0,32.575v10c0,2.313,8.787,4.188,19.625,4.188  c10.839,0,19.625-1.875,19.625-4.188v-10C39.25,34.888,30.464,36.763,19.625,36.763z"/>
<linearGradient gradientTransform="matrix(1 0 0 -1 -642.8008 -939.4756)" x1="642.8008" x2="682.0508" gradientUnits="userSpaceOnUse" y1="-973.1445" y2="-973.1445" id="svg2.SVGID_2_">
	<stop offset="0" style="stop-color:#9CD7FF"/>
	<stop offset="0.0039" style="stop-color:#9DD7FF"/>
	<stop offset="0.2273" style="stop-color:#BDE5FF"/>
	<stop offset="0.4138" style="stop-color:#D1EEFF"/>
	<stop offset="0.5394" style="stop-color:#D9F1FF"/>
	<stop offset="0.6155" style="stop-color:#D5EFFE"/>
	<stop offset="0.6891" style="stop-color:#C9E7FA"/>
	<stop offset="0.7617" style="stop-color:#B6DAF3"/>
	<stop offset="0.8337" style="stop-color:#9AC8EA"/>
	<stop offset="0.9052" style="stop-color:#77B0DD"/>
	<stop offset="0.9754" style="stop-color:#4D94CF"/>
	<stop offset="1" style="stop-color:#3C89C9"/>
</linearGradient>
<path fill="url(#svg2.SVGID_2_)" d="M19.625,36.763c10.839,0,19.625-1.875,19.625-4.188l-1.229-2c0,2.168-8.235,3.927-18.396,3.927  c-9.481,0-17.396-1.959-18.396-3.927l-1.229,2C0,34.888,8.787,36.763,19.625,36.763z"/>
<path fill="#3C89C9" d="M19.625,26.468c10.16,0,19.625,2.775,19.625,2.775c-0.375,2.721-5.367,5.438-19.554,5.438  c-12.125,0-18.467-2.484-19.541-4.918C-0.127,29.125,9.465,26.468,19.625,26.468z"/>
<linearGradient gradientTransform="matrix(1 0 0 -1 -642.8008 -939.4756)" x1="642.8008" x2="682.0508" gradientUnits="userSpaceOnUse" y1="-965.6948" y2="-965.6948" id="svg2.SVGID_3_">
	<stop offset="0" style="stop-color:#3C89C9"/>
	<stop offset="0.1482" style="stop-color:#60A6DD"/>
	<stop offset="0.3113" style="stop-color:#81C1F0"/>
	<stop offset="0.4476" style="stop-color:#95D1FB"/>
	<stop offset="0.5394" style="stop-color:#9CD7FF"/>
	<stop offset="0.636" style="stop-color:#98D4FD"/>
	<stop offset="0.7293" style="stop-color:#8DCAF6"/>
	<stop offset="0.8214" style="stop-color:#79BBEB"/>
	<stop offset="0.912" style="stop-color:#5EA5DC"/>
	<stop offset="1" style="stop-color:#3C89C9"/>
</linearGradient>
<path fill="url(#svg2.SVGID_3_)" d="M19.625,23.313C8.787,23.313,0,21.438,0,19.125v10c0,2.313,8.787,4.188,19.625,4.188  c10.839,0,19.625-1.875,19.625-4.188v-10C39.25,21.438,30.464,23.313,19.625,23.313z"/>
<linearGradient gradientTransform="matrix(1 0 0 -1 -642.8008 -939.4756)" x1="642.8008" x2="682.0508" gradientUnits="userSpaceOnUse" y1="-959.6948" y2="-959.6948" id="svg2.SVGID_4_">
	<stop offset="0" style="stop-color:#9CD7FF"/>
	<stop offset="0.0039" style="stop-color:#9DD7FF"/>
	<stop offset="0.2273" style="stop-color:#BDE5FF"/>
	<stop offset="0.4138" style="stop-color:#D1EEFF"/>
	<stop offset="0.5394" style="stop-color:#D9F1FF"/>
	<stop offset="0.6155" style="stop-color:#D5EFFE"/>
	<stop offset="0.6891" style="stop-color:#C9E7FA"/>
	<stop offset="0.7617" style="stop-color:#B6DAF3"/>
	<stop offset="0.8337" style="stop-color:#9AC8EA"/>
	<stop offset="0.9052" style="stop-color:#77B0DD"/>
	<stop offset="0.9754" style="stop-color:#4D94CF"/>
	<stop offset="1" style="stop-color:#3C89C9"/>
</linearGradient>
<path fill="url(#svg2.SVGID_4_)" d="M19.625,23.313c10.839,0,19.625-1.875,19.625-4.188l-1.229-2c0,2.168-8.235,3.926-18.396,3.926  c-9.481,0-17.396-1.959-18.396-3.926l-1.229,2C0,21.438,8.787,23.313,19.625,23.313z"/>
<path fill="#3C89C9" d="M19.476,13.019c10.161,0,19.625,2.775,19.625,2.775c-0.375,2.721-5.367,5.438-19.555,5.438  c-12.125,0-18.467-2.485-19.541-4.918C-0.277,15.674,9.316,13.019,19.476,13.019z"/>
<linearGradient gradientTransform="matrix(1 0 0 -1 -642.8008 -939.4756)" x1="642.8008" x2="682.0508" gradientUnits="userSpaceOnUse" y1="-952.4946" y2="-952.4946" id="svg2.SVGID_5_">
	<stop offset="0" style="stop-color:#3C89C9"/>
	<stop offset="0.1482" style="stop-color:#60A6DD"/>
	<stop offset="0.3113" style="stop-color:#81C1F0"/>
	<stop offset="0.4476" style="stop-color:#95D1FB"/>
	<stop offset="0.5394" style="stop-color:#9CD7FF"/>
	<stop offset="0.636" style="stop-color:#98D4FD"/>
	<stop offset="0.7293" style="stop-color:#8DCAF6"/>
	<stop offset="0.8214" style="stop-color:#79BBEB"/>
	<stop offset="0.912" style="stop-color:#5EA5DC"/>
	<stop offset="1" style="stop-color:#3C89C9"/>
</linearGradient>
<path fill="url(#svg2.SVGID_5_)" d="M19.625,10.113C8.787,10.113,0,8.238,0,5.925v10c0,2.313,8.787,4.188,19.625,4.188  c10.839,0,19.625-1.875,19.625-4.188v-10C39.25,8.238,30.464,10.113,19.625,10.113z"/>
<linearGradient gradientTransform="matrix(1 0 0 -1 -642.8008 -939.4756)" x1="642.8008" x2="682.0508" gradientUnits="userSpaceOnUse" y1="-946.4946" y2="-946.4946" id="svg2.SVGID_6_">
	<stop offset="0" style="stop-color:#9CD7FF"/>
	<stop offset="0.0039" style="stop-color:#9DD7FF"/>
	<stop offset="0.2273" style="stop-color:#BDE5FF"/>
	<stop offset="0.4138" style="stop-color:#D1EEFF"/>
	<stop offset="0.5394" style="stop-color:#D9F1FF"/>
	<stop offset="0.6155" style="stop-color:#D5EFFE"/>
	<stop offset="0.6891" style="stop-color:#C9E7FA"/>
	<stop offset="0.7617" style="stop-color:#B6DAF3"/>
	<stop offset="0.8337" style="stop-color:#9AC8EA"/>
	<stop offset="0.9052" style="stop-color:#77B0DD"/>
	<stop offset="0.9754" style="stop-color:#4D94CF"/>
	<stop offset="1" style="stop-color:#3C89C9"/>
</linearGradient>
<path fill="url(#svg2.SVGID_6_)" d="M19.625,10.113c10.839,0,19.625-1.875,19.625-4.188l-1.229-2c0,2.168-8.235,3.926-18.396,3.926  c-9.481,0-17.396-1.959-18.396-3.926L0,5.925C0,8.238,8.787,10.113,19.625,10.113z"/>
<linearGradient gradientTransform="matrix(1 0 0 -1 -642.8008 -939.4756)" x1="644.0293" x2="680.8223" gradientUnits="userSpaceOnUse" y1="-943.4014" y2="-943.4014" id="svg2.SVGID_7_">
	<stop offset="0" style="stop-color:#9CD7FF"/>
	<stop offset="1" style="stop-color:#3C89C9"/>
</linearGradient>
<ellipse rx="18.396" fill="url(#svg2.SVGID_7_)" ry="3.926" cx="19.625" cy="3.926"/>
<path fill="#FFFFFF" d="M31.04,45.982c0,0-4.354,0.664-7.29,0.781  c-3.125,0.125-8.952,0-8.952,0l-2.384-10.292l0.044-2.108l-1.251-1.154L9.789,23.024l-0.082-0.119L9.5,20.529l-1.65-1.254  L5.329,8.793c0,0,4.213,0.903,7.234,1.07s8.375,0.25,8.375,0.25l3,9.875l-0.25,1.313l1.063,2.168l2.312,9.645l-0.521,1.416  l1.46,1.834L31.04,45.982z" enable-background="new    " opacity="0.24"/>
</svg>
      </g>
    </g>
    <g text-rendering="geometricPrecision" stroke-miterlimit="1.45" shape-rendering="geometricPrecision" font-family="sans-serif" transform="matrix(1,0,0,1,-55,-67)" stroke-linecap="butt">
      <text x="854.5356" xml:space="preserve" y="411.4827" clip-path="url(#clipPath2)" stroke="none">Heritrix</text>
      <text x="836.6674" xml:space="preserve" y="425.4514" clip-path="url(#clipPath2)" stroke="none">Working area</text>
      <text x="1071.4481" font-size="16" y="134.7791" clip-path="url(#clipPath2)" stroke="none" font-weight="bold" xml:space="preserve">Capture Tools</text>
    </g>
    <g fill="url(#linearGradient9)" text-rendering="geometricPrecision" shape-rendering="geometricPrecision" transform="matrix(1,0,0,1,-55,-67)" stroke="url(#linearGradient9)">
      <path d="M1030.6731 578.6 L1233.0731 578.6 L1233.0731 642.6 L1030.6731 642.6 Z" stroke="none" clip-path="url(#clipPath2)"/>
    </g>
    <g text-rendering="geometricPrecision" stroke-miterlimit="1.45" shape-rendering="geometricPrecision" transform="matrix(1,0,0,1,-55,-67)" stroke-linecap="butt">
      <path fill="none" d="M1030.6731 578.6 L1233.0731 578.6 L1233.0731 642.6 L1030.6731 642.6 Z" clip-path="url(#clipPath2)"/>
      <text x="1107.129" xml:space="preserve" y="600.7855" clip-path="url(#clipPath2)" font-family="sans-serif" stroke="none">PANDAS</text>
      <text x="1077.9347" xml:space="preserve" y="614.7543" clip-path="url(#clipPath2)" font-family="sans-serif" stroke="none">selective crawling</text>
      <text x="1129.9659" xml:space="preserve" y="628.723" clip-path="url(#clipPath2)" font-family="sans-serif" stroke="none"> </text>
    </g>
    <g fill="url(#linearGradient10)" text-rendering="geometricPrecision" shape-rendering="geometricPrecision" transform="matrix(1,0,0,1,-55,-67)" stroke="url(#linearGradient10)">
      <path d="M91.8731 690.04 L243.8731 690.04 L243.8731 781.24 L91.8731 781.24 Z" stroke="none" clip-path="url(#clipPath2)"/>
    </g>
    <g text-rendering="geometricPrecision" stroke-miterlimit="1.45" shape-rendering="geometricPrecision" transform="matrix(1,0,0,1,-55,-67)" stroke-linecap="butt">
      <path fill="none" d="M91.8731 690.04 L243.8731 690.04 L243.8731 781.24 L91.8731 781.24 Z" clip-path="url(#clipPath2)"/>
      <text x="145.4288" xml:space="preserve" y="739.7943" clip-path="url(#clipPath2)" font-family="sans-serif" stroke="none">Tarkine</text>
    </g>
    <g fill="url(#linearGradient11)" text-rendering="geometricPrecision" shape-rendering="geometricPrecision" transform="matrix(1,0,0,1,-55,-67)" stroke="url(#linearGradient11)">
      <path d="M581.1365 314 L661.1365 314 L661.1365 354 L581.1365 354 Z" stroke="none" clip-path="url(#clipPath2)"/>
    </g>
    <g text-rendering="geometricPrecision" stroke-miterlimit="1.45" shape-rendering="geometricPrecision" transform="matrix(1,0,0,1,-55,-67)" stroke-linecap="butt">
      <path fill="none" d="M581.1365 314 L661.1365 314 L661.1365 354 L581.1365 354 Z" clip-path="url(#clipPath2)"/>
      <text x="595.0652" xml:space="preserve" y="338.1543" clip-path="url(#clipPath2)" font-family="sans-serif" stroke="none">Importer</text>
    </g>
    <g fill="url(#linearGradient12)" text-rendering="geometricPrecision" shape-rendering="geometricPrecision" transform="matrix(1,0,0,1,-55,-67)" stroke="url(#linearGradient12)">
      <path d="M578.2 673.14 L747 673.14 L747 798.14 L578.2 798.14 Z" stroke="none" clip-path="url(#clipPath2)"/>
    </g>
    <g text-rendering="geometricPrecision" stroke-miterlimit="1.45" shape-rendering="geometricPrecision" transform="matrix(1,0,0,1,-55,-67)" stroke-linecap="butt">
      <path fill="none" d="M578.2 673.14 L747 673.14 L747 798.14 L578.2 798.14 Z" clip-path="url(#clipPath2)"/>
      <text x="637.4867" xml:space="preserve" y="732.8099" clip-path="url(#clipPath2)" font-family="sans-serif" stroke="none">Trove UI</text>
      <text x="611.8929" xml:space="preserve" y="746.7787" clip-path="url(#clipPath2)" font-family="sans-serif" stroke="none">(websites island)</text>
    </g>
    <g fill="url(#linearGradient13)" text-rendering="geometricPrecision" shape-rendering="geometricPrecision" transform="matrix(1,0,0,1,-55,-67)" stroke="url(#linearGradient13)">
      <path d="M394.1 592.24 L501.1 592.24 L501.1 637.84 L394.1 637.84 Z" stroke="none" clip-path="url(#clipPath2)"/>
    </g>
    <g text-rendering="geometricPrecision" stroke-miterlimit="1.45" shape-rendering="geometricPrecision" transform="matrix(1,0,0,1,-55,-67)" stroke-linecap="butt">
      <path fill="none" d="M394.1 592.24 L501.1 592.24 L501.1 637.84 L394.1 637.84 Z" clip-path="url(#clipPath2)"/>
      <text x="402.2777" xml:space="preserve" y="612.2099" clip-path="url(#clipPath2)" font-family="sans-serif" stroke="none">Trove websites</text>
      <text x="424.9213" xml:space="preserve" y="626.1786" clip-path="url(#clipPath2)" font-family="sans-serif" stroke="none">indexer</text>
    </g>
    <g text-rendering="geometricPrecision" stroke-miterlimit="1.45" shape-rendering="geometricPrecision" font-family="sans-serif" transform="matrix(1,0,0,1,-55,-67)" stroke-linecap="butt">
      <text x="141.5977" xml:space="preserve" y="884.1699" clip-path="url(#clipPath2)" stroke="none">DLIR delivery</text>
    </g>
    <g stroke-linecap="round" transform="matrix(1,0,0,1,-55,-67)" text-rendering="geometricPrecision" shape-rendering="geometricPrecision" stroke-dasharray="8,6,0,6" stroke-width="2" stroke-miterlimit="1.45">
      <rect fill="none" x="70" width="223" height="252.76" y="640.24" clip-path="url(#clipPath2)"/>
    </g>
    <g fill="url(#linearGradient14)" text-rendering="geometricPrecision" shape-rendering="geometricPrecision" transform="matrix(1,0,0,1,-55,-67)" stroke="url(#linearGradient14)">
      <path d="M561.6365 214.6 L680.6365 214.6 L680.6365 272.4 L561.6365 272.4 Z" stroke="none" clip-path="url(#clipPath2)"/>
    </g>
    <g text-rendering="geometricPrecision" stroke-miterlimit="1.45" shape-rendering="geometricPrecision" transform="matrix(1,0,0,1,-55,-67)" stroke-linecap="butt">
      <path fill="none" d="M561.6365 214.6 L680.6365 214.6 L680.6365 272.4 L561.6365 272.4 Z" clip-path="url(#clipPath2)"/>
      <text x="600.491" xml:space="preserve" y="240.6699" clip-path="url(#clipPath2)" font-family="sans-serif" stroke="none">Access</text>
      <text x="577.2615" xml:space="preserve" y="254.6387" clip-path="url(#clipPath2)" font-family="sans-serif" stroke="none">Permissions UI</text>
    </g>
    <g fill="rgb(255,204,0)" text-rendering="geometricPrecision" shape-rendering="geometricPrecision" transform="matrix(1,0,0,1,-55,-67)" stroke="rgb(255,204,0)">
      <rect x="809" width="377" height="102.844" y="661.178" clip-path="url(#clipPath2)" stroke="none"/>
    </g>
    <g text-rendering="geometricPrecision" stroke-miterlimit="1.45" shape-rendering="geometricPrecision" font-family="sans-serif" transform="matrix(1,0,0,1,-55,-67)" stroke-linecap="butt">
      <text x="901.6641" xml:space="preserve" y="674.848" clip-path="url(#clipPath2)" stroke="none">Trove and Tarkine are insulated</text>
      <text x="907.8252" xml:space="preserve" y="688.8168" clip-path="url(#clipPath2)" stroke="none">from ingest, data storage and</text>
      <text x="875.0508" xml:space="preserve" y="702.7855" clip-path="url(#clipPath2)" stroke="none">low-level replay (link rewriting) concerns</text>
      <text x="995.5928" xml:space="preserve" y="716.7543" clip-path="url(#clipPath2)" stroke="none"> </text>
      <text x="860.3936" xml:space="preserve" y="730.723" clip-path="url(#clipPath2)" stroke="none">Tarkine redirects to Trove for full-text search.</text>
      <text x="870.3428" xml:space="preserve" y="744.6918" clip-path="url(#clipPath2)" stroke="none">Trove redirects to Tarkine for delivery and</text>
      <text x="949.4854" xml:space="preserve" y="758.6605" clip-path="url(#clipPath2)" stroke="none">calendar pages.</text>
      <rect fill="none" x="809" width="377" height="102.844" y="661.178" clip-path="url(#clipPath2)"/>
      <path fill="none" d="M241.7385 453.6987 L388.2298 358.3669" clip-path="url(#clipPath2)"/>
      <path d="M394.935 354.0034 L382.15 356.3579 L387.3917 358.9123 L387.6044 364.7394 Z" clip-path="url(#clipPath2)" stroke="none"/>
      <rect x="257.8472" y="387.8813" clip-path="url(#clipPath2)" fill="white" width="120.9824" height="31.9375" stroke="none"/>
      <text x="279.3501" xml:space="preserve" y="401.0199" clip-path="url(#clipPath2)" stroke="none">CDX queries,</text>
      <text x="259.8472" xml:space="preserve" y="414.9887" clip-path="url(#clipPath2)" stroke="none">raw WARC retrieval</text>
      <path fill="none" d="M1030.6907 386.7232 L924.6329 358.9288" clip-path="url(#clipPath2)"/>
      <path d="M916.8942 356.9007 L927.2347 364.7795 L925.6002 359.1823 L929.7698 355.1061 Z" clip-path="url(#clipPath2)" stroke="none"/>
      <path fill="none" d="M1030.6907 330.365 L924.851 341.4162" clip-path="url(#clipPath2)"/>
      <path d="M916.8942 342.247 L929.3486 345.9738 L925.8456 341.3123 L928.3101 336.0278 Z" clip-path="url(#clipPath2)" stroke="none"/>
      <path fill="none" d="M1053.6781 250.5864 L923.9485 320.9197" clip-path="url(#clipPath2)"/>
      <path d="M916.9156 324.7326 L929.848 323.4088 L924.8276 320.4431 L925.0819 314.6177 Z" clip-path="url(#clipPath2)" stroke="none"/>
      <path fill="none" d="M1070.5288 470.1874 L923.6645 376.3087" clip-path="url(#clipPath2)"/>
      <path d="M916.924 372 L924.3418 382.6759 L924.5071 376.8473 L929.7277 374.2502 Z" clip-path="url(#clipPath2)" stroke="none"/>
      <path fill="none" d="M1067.4976 578.5961 L1014 552 L911.9558 398.9765" clip-path="url(#clipPath2)"/>
      <path d="M907.5173 392.3207 L910.0151 405.0785 L912.5106 399.8085 L918.335 399.5304 Z" clip-path="url(#clipPath2)" stroke="none"/>
      <path fill="none" d="M170.4332 690.0374 L178.8496 540.1127" clip-path="url(#clipPath2)"/>
      <path d="M179.298 532.1253 L173.6332 543.8262 L178.7935 541.1111 L183.6175 544.3867 Z" clip-path="url(#clipPath2)" stroke="none"/>
      <rect x="149.558" y="595.1013" clip-path="url(#clipPath2)" fill="white" width="110.7109" height="31.9375" stroke="none"/>
      <text x="178.8685" xml:space="preserve" y="608.2399" clip-path="url(#clipPath2)" stroke="none">iframe &amp;</text>
      <text x="151.558" xml:space="preserve" y="622.2087" clip-path="url(#clipPath2)" stroke="none">Wayback XML API</text>
      <path fill="none" d="M661.1323 335.9424 L828.9086 344.0908" clip-path="url(#clipPath2)"/>
      <path d="M836.8992 344.4788 L825.1558 338.9026 L827.9098 344.0423 L824.6708 348.8908 Z" clip-path="url(#clipPath2)" stroke="none"/>
      <path fill="none" d="M654.201 314.0145 L826.3207 209.9781" clip-path="url(#clipPath2)"/>
      <path d="M833.1672 205.8398 L820.311 207.7682 L825.4648 210.4954 L825.4839 216.3263 Z" clip-path="url(#clipPath2)" stroke="none"/>
      <path fill="none" d="M578.2219 735.64 L505.5718 735.64" clip-path="url(#clipPath2)"/>
      <path d="M497.5718 735.64 L509.5718 740.64 L506.5718 735.64 L509.5718 730.64 Z" clip-path="url(#clipPath2)" stroke="none"/>
      <path fill="none" d="M427.8559 361.9765 L445.2001 584.2806" clip-path="url(#clipPath2)"/>
      <path d="M427.2336 354.0008 L423.1822 366.3533 L427.9337 362.9735 L433.1519 365.5755 Z" clip-path="url(#clipPath2)" stroke="none"/>
      <path d="M445.8224 592.2564 L449.8738 579.9039 L445.1223 583.2837 L439.9041 580.6817 Z" clip-path="url(#clipPath2)" stroke="none"/>
      <rect x="283.7594" y="443.1825" clip-path="url(#clipPath2)" fill="white" width="245.3535" height="59.875" stroke="none"/>
      <text x="312.1383" xml:space="preserve" y="456.3212" clip-path="url(#clipPath2)" stroke="none">Notification about new records,</text>
      <text x="285.7594" xml:space="preserve" y="470.2899" clip-path="url(#clipPath2)" stroke="none">Bulk record enumeration for reindexing,</text>
      <text x="312.5573" xml:space="preserve" y="484.2587" clip-path="url(#clipPath2)" stroke="none">(Updates need to be supported</text>
      <text x="295.0465" xml:space="preserve" y="498.2274" clip-path="url(#clipPath2)" stroke="none">primarily for access control changes)</text>
      <path fill="none" d="M447.6 637.8586 L447.6 672.3992" clip-path="url(#clipPath2)"/>
      <path d="M447.6 680.3992 L452.6 668.3992 L447.6 671.3992 L442.6 668.3992 Z" clip-path="url(#clipPath2)" stroke="none"/>
    </g>
  </g>
</svg>
